# xmcd CD database file
#
# Track frame offsets:
#	150
#	16844
#	32569
#	49820
#	63045
#	76715
#	90455
#	100134
#	126503
#	135374
#	153565
#	164080
#	180558
#	200763
#	227404
#	251189
#
# Disc length: 3619 seconds
#
# Revision: 0
# Processed by: cddbd v1.5.2PL0 Copyright (c) Steve Scherf et al.
# Submitted via: Feurio! 1.68 - http://www.feurio.com
#
DISCID=c90e2110
DTITLE=Howlin Wolf - The London Howlin Wolf Session
DYEAR=1900
DGENRE=
TTITLE0=Rockin` Daddy
TTITLE1=record - I ain`t superstitious
TTITLE2=record - Sitting on top of the world
TTITLE3=record - Worried about my baby
TTITLE4=record - What a woman
TTITLE5=record - Poor boy
TTITLE6=record - Built for comfort
TTITLE7=record - Who`s been talking?
TTITLE8=record - The red rooster (False start)
TTITLE9=record - The red rooster
TTITLE10=record - Do the do
TTITLE11=record - Highway 49
TTITLE12=record - Wang dang doodle
TTITLE13=record - Goin`down slow
TTITLE14=record - Killing floor
TTITLE15=record - I want to have aword with you
EXTD=
EXTT0=
EXTT1=
EXTT2=
EXTT3=
EXTT4=
EXTT5=
EXTT6=
EXTT7=
EXTT8=
EXTT9=
EXTT10=
EXTT11=
EXTT12=
EXTT13=
EXTT14=
EXTT15=
PLAYORDER=
